<?xml version="1.0" encoding="UTF-8" standalone="no"?>
<!-- Created with Inkscape (http://www.inkscape.org/) -->
<svg
   xmlns:svg="http://www.w3.org/2000/svg"
   xmlns="http://www.w3.org/2000/svg"
   version="1.0"
   width="900"
   height="600"
   id="svg2">
  <defs
     id="defs5" />
  <rect
     width="900"
     height="600"
     x="0"
     y="0"
     id="rect2394"
     style="fill:#ffffff;stroke:none" />
  <path
     d="M 450,120 C 350.64,120 269.99999,200.64 270,300 C 270,303.62226 270.10115,307.21175 270.3125,310.78125 C 272.185,309.45498 288.00977,298.96875 320.96875,298.96875 C 392.66655,298.96875 467.96875,340.60688 467.96875,376.375 C 467.96875,400.59708 435.00093,409.93749 407.96875,409.9375 C 332.11686,409.9375 285.12499,372.28126 285.125,372.28125 L 285.5,373.09375 C 313.54138,436.06036 376.66143,480 450,480 C 549.36,480 630,399.36 630,300 C 630,270.23885 622.77439,242.14441 609.96875,217.40625 L 609.0625,218.0625 C 575.56067,242.25827 526.86644,256 493.96875,256 C 461.28365,256 440.50001,244.00709 440.5,225 C 440.5,202.59935 476.12074,164.99852 541.71875,145.125 C 514.84997,129.16798 483.49618,120 450,120 z"
     id="path2384"
     style="fill:#3ead56;stroke:none" />
</svg>
